<svg width="32" height="32" viewBox="0 0 32 32" fill="none" xmlns="http://www.w3.org/2000/svg">
<path d="M4 32C1.79086 32 0 30.2091 0 28V4C0 1.79086 1.79086 0 4 0H28C30.2091 0 32 1.79086 32 4V28C32 30.2091 30.2091 32 28 32H4ZM17 23V11.4142L21.2929 15.7071C21.6834 16.0976 22.3166 16.0976 22.7071 15.7071C23.0976 15.3166 23.0976 14.6834 22.7071 14.2929L16.7071 8.29289C16.3166 7.90237 15.6834 7.90237 15.2929 8.29289L9.29289 14.2929C8.90237 14.6834 8.90237 15.3166 9.29289 15.7071C9.68342 16.0976 10.3166 16.0976 10.7071 15.7071L15 11.4142V23C15 23.5523 15.4477 24 16 24C16.5523 24 17 23.5523 17 23Z" fill="#F3A608"/>
</svg>
